<svg preserveAspectRatio="none" width="100%" height="100%" overflow="visible" style="display: block;" viewBox="0 0 1343.33 186.75" fill="none" xmlns="http://www.w3.org/2000/svg">
<g id="THE GREAT">
<path d="M52 182.75V40.75H0V3.99999H148.75V40.75H97V182.75H52Z" fill="var(--fill-0, #1E1E1E)"/>
<path d="M165.227 3.99999H210.227V74H271.477V3.99999H316.477V182.75H271.477V110.75H210.227V182.75H165.227V3.99999Z" fill="var(--fill-0, #1E1E1E)"/>
<path d="M386.008 72.5H464.008V109.25H386.008V146H478.008V182.75H341.008V3.99999H476.508V40.75H386.008V72.5Z" fill="var(--fill-0, #1E1E1E)"/>
<path d="M655.471 63.25C652.221 51 643.971 36.75 619.221 36.75C589.721 36.75 578.471 59.75 578.471 93.25C578.471 127 589.721 150 620.971 150C641.721 150 656.221 137.5 656.721 120.25H622.721V87.75H703.221V182.75H670.971L666.471 160H665.971C657.471 176.25 640.721 186.75 614.471 186.75C563.721 186.75 533.471 147.25 533.471 93.25C533.471 39.5 563.721 0 619.971 0C668.971 0 696.221 29 700.471 63.25H655.471Z" fill="var(--fill-0, #1E1E1E)"/>
<path d="M724.797 182.75V3.99999H809.047C848.797 3.99999 872.797 22.25 872.797 56C872.797 79.75 858.797 94.75 836.547 99.75V100.25C881.297 108 865.047 177.25 875.297 180.25V182.75H828.547C819.797 175.25 836.047 120.5 797.797 120.5H769.797V182.75H724.797ZM769.797 40.75V83.75H800.297C818.297 83.75 827.797 77.25 827.797 62.25C827.797 47.25 818.297 40.75 800.297 40.75H769.797Z" fill="var(--fill-0, #1E1E1E)"/>
<path d="M937.521 72.5H1015.52V109.25H937.521V146H1029.52V182.75H892.521V3.99999H1028.02V40.75H937.521V72.5Z" fill="var(--fill-0, #1E1E1E)"/>
<path d="M1155.97 145.5H1094.72L1083.22 182.75H1038.22L1102.97 3.99999H1147.97L1212.47 182.75H1167.47L1155.97 145.5ZM1104.97 111.25H1145.97L1125.72 45.25H1125.22L1104.97 111.25Z" fill="var(--fill-0, #1E1E1E)"/>
<path d="M1246.58 182.75V40.75H1194.58V3.99999H1343.33V40.75H1291.58V182.75H1246.58Z" fill="var(--fill-0, #1E1E1E)"/>
</g>
</svg>
